<svg width="269" height="62" viewBox="0 0 269 62" fill="none" xmlns="http://www.w3.org/2000/svg">
<mask id="mask0_30_31" style="mask-type:luminance" maskUnits="userSpaceOnUse" x="238" y="0" width="31" height="30">
<path d="M238.74 0H268.073V29.3333H238.74V0Z" fill="white"/>
</mask>
<g mask="url(#mask0_30_31)">
<mask id="mask1_30_31" style="mask-type:luminance" maskUnits="userSpaceOnUse" x="233" y="-14" width="48" height="49">
<path d="M233.672 4.78638L253.5 -13.5417L280.646 15.8333L260.818 34.1614L233.672 4.78638Z" fill="white"/>
</mask>
<g mask="url(#mask1_30_31)">
<mask id="mask2_30_31" style="mask-type:luminance" maskUnits="userSpaceOnUse" x="233" y="-14" width="48" height="49">
<path d="M233.672 4.78638L253.5 -13.5417L280.646 15.8333L260.818 34.1614L233.672 4.78638Z" fill="white"/>
</mask>
<g mask="url(#mask2_30_31)">
<path d="M267.281 1.51022L243.245 0.44251C238.604 0.234177 237.823 9.27584 243.323 9.42689L258.276 9.83314L257.13 24.88C256.787 29.4581 265.719 29.9425 265.974 25.2863L267.281 1.51022Z" fill="#F19143"/>
</g>
</g>
</g>
<path d="M22.6254 18.4475C23.3337 18.4475 23.99 18.5933 24.6046 18.885C25.2296 19.1663 25.6931 19.635 26.0004 20.3017L44.7504 57.0517C45.3181 58.0256 45.4692 58.8746 45.2087 59.5933C44.9431 60.3173 44.4379 60.885 43.6879 61.3017C42.9379 61.7288 42.1358 61.9475 41.2921 61.9475C40.6775 61.9475 40.0525 61.7808 39.4171 61.4475C38.7765 61.1142 38.2765 60.6454 37.9171 60.0308L33.2921 50.8225H11.9796L7.33374 60.0308C7.02645 60.7288 6.55249 61.2183 5.91708 61.51C5.27645 61.8017 4.64624 61.9475 4.02124 61.9475C3.27124 61.9475 2.52645 61.7288 1.79208 61.3017C1.06812 60.885 0.552494 60.3173 0.229576 59.5933C-0.103757 58.8746 -0.0725064 58.0881 0.31291 57.2392L19.1879 20.3017C19.5317 19.5517 19.9848 19.0621 20.5421 18.8225C21.0942 18.5725 21.7921 18.4475 22.6254 18.4475ZM22.6254 29.635L15.2087 44.4058H30.0421L22.6254 29.635Z" fill="white"/>
<path d="M75.461 18.4475C76.3881 18.4475 77.2579 18.7131 78.0652 19.2392C78.8829 19.7704 79.2944 20.609 79.2944 21.76V57.9058C79.2944 60.1558 78.0131 61.2808 75.461 61.2808C73.1694 61.2808 71.9714 60.2183 71.8777 58.0933C70.4714 59.3329 68.8829 60.2756 67.1069 60.9267C65.3412 61.5621 63.6694 61.885 62.086 61.885C58.7787 61.885 55.9194 61.135 53.5027 59.635C51.0964 58.1246 49.2579 56.0256 47.9819 53.3433C46.7006 50.6506 46.0652 47.5621 46.0652 44.0725C46.0652 40.7131 46.7423 37.7548 48.1069 35.1975C49.4819 32.6454 51.3881 30.6298 53.836 29.1558C56.2944 27.6715 59.1329 26.9267 62.3569 26.9267C63.8152 26.9267 65.3777 27.2131 67.0444 27.7808C68.7214 28.3538 70.2944 29.2131 71.7527 30.3642V21.76C71.7527 20.609 72.1329 19.7704 72.8985 19.2392C73.6746 18.7131 74.5287 18.4475 75.461 18.4475ZM62.2944 55.1975C64.4871 55.1975 66.4819 54.7079 68.2735 53.7183C70.0652 52.7183 71.2631 51.2704 71.8777 49.3642L71.8152 39.1767C71.0652 37.359 69.836 35.9788 68.1277 35.0308C66.4298 34.0881 64.6798 33.6142 62.8777 33.6142C60.0964 33.6142 57.8569 34.6246 56.1485 36.635C54.4506 38.635 53.6069 41.135 53.6069 44.135C53.6069 47.359 54.3985 50.01 55.9819 52.0933C57.5756 54.1663 59.6798 55.1975 62.2944 55.1975Z" fill="white"/>
<path d="M94.3962 25.5307V38.6973H115.584C116.719 38.6973 117.573 39.0463 118.146 39.739C118.73 40.4213 119.021 41.1557 119.021 41.9473C119.021 42.739 118.73 43.4578 118.146 44.0932C117.573 44.7338 116.719 45.0515 115.584 45.0515H94.3962V57.6973C94.3962 58.8536 93.99 59.739 93.1879 60.364C92.3962 60.9786 91.5421 61.2807 90.6254 61.2807C89.6514 61.2807 88.7608 60.9786 87.9587 60.364C87.1671 59.739 86.7712 58.8796 86.7712 57.7807V23.0098C86.7712 21.9578 87.1983 21.0463 88.0629 20.2807C88.9223 19.5046 89.9275 19.114 91.0837 19.114H116.771C117.964 19.114 118.844 19.4473 119.417 20.114C119.985 20.7703 120.271 21.5098 120.271 22.3432C120.271 23.1505 119.985 23.8848 119.417 24.5515C118.844 25.2078 117.964 25.5307 116.771 25.5307H94.3962Z" fill="white"/>
<path d="M153.769 27.5725C154.92 27.5725 155.852 27.9267 156.561 28.635C157.269 29.3433 157.623 30.2288 157.623 31.2808V57.9058C157.623 59.0048 157.212 59.8433 156.394 60.4267C155.571 60.9996 154.727 61.2808 153.852 61.2808C152.878 61.2808 152.003 60.984 151.227 60.385C150.446 59.7913 150.061 58.9423 150.061 57.8433V57.5725C148.253 59.3381 146.378 60.51 144.436 61.0933C142.488 61.6611 140.686 61.9475 139.019 61.9475C134.42 61.9475 130.842 60.5048 128.29 57.6142C125.733 54.7131 124.457 50.7965 124.457 45.8642V31.2808C124.457 30.2704 124.779 29.4006 125.436 28.6767C126.102 27.9423 127.029 27.5725 128.227 27.5725C129.363 27.5725 130.274 27.9423 130.957 28.6767C131.649 29.4006 131.998 30.2704 131.998 31.2808V45.9892C131.998 48.8538 132.644 51.1246 133.936 52.8017C135.238 54.484 137.311 55.3225 140.144 55.3225C140.977 55.3225 141.957 55.0933 143.082 54.635C144.207 54.1663 145.295 53.4683 146.352 52.5517C147.42 51.6246 148.3 50.4423 148.998 49.01C149.707 47.5673 150.061 45.8746 150.061 43.9267V31.2808C150.061 30.2288 150.363 29.3433 150.977 28.635C151.602 27.9267 152.529 27.5725 153.769 27.5725Z" fill="white"/>
<path d="M162.109 53.4057C161.802 52.1713 162.089 51.1765 162.964 50.4265C163.849 49.6765 164.823 49.3015 165.88 49.3015C166.682 49.3015 167.391 49.5411 168.005 50.0098C168.63 50.4682 169.094 51.1557 169.401 52.0723C169.661 52.864 170.234 53.5203 171.109 54.0307C171.995 54.5463 173.026 54.9161 174.193 55.1348C175.37 55.3432 176.552 55.4473 177.734 55.4473C180.12 55.4473 182.047 55.0203 183.505 54.1557C184.964 53.2963 185.693 52.2078 185.693 50.8848C185.693 49.9578 185.302 49.2755 184.526 48.8432C183.745 48.4005 182.724 48.088 181.464 47.9057C180.214 47.7286 178.885 47.5932 177.484 47.5098C175.62 47.3328 173.797 47.1088 172.005 46.8432C170.224 46.5828 168.609 46.1296 167.151 45.489C165.693 44.8536 164.516 43.9057 163.63 42.6557C162.755 41.3953 162.318 39.6765 162.318 37.5098C162.318 35.4005 162.932 33.5515 164.172 31.9682C165.406 30.3744 167.151 29.1348 169.401 28.2598C171.651 27.3744 174.255 26.9265 177.214 26.9265C178.932 26.9265 180.786 27.0932 182.776 27.4265C184.76 27.7494 186.599 28.4161 188.297 29.4265C190.005 30.4421 191.255 32.0098 192.047 34.1348C192.349 35.0255 192.323 35.8119 191.964 36.489C191.615 37.1713 191.099 37.6921 190.422 38.0515C189.74 38.4005 189.047 38.5723 188.339 38.5723C187.547 38.5723 186.891 38.4213 186.38 38.114C185.88 37.7963 185.448 37.2598 185.089 36.5098C184.682 35.5932 184.01 34.9161 183.068 34.4682C182.12 34.0255 181.109 33.7494 180.026 33.6348C178.943 33.5255 178.005 33.4682 177.214 33.4682C175.005 33.4682 173.224 33.8432 171.88 34.5932C170.531 35.3432 169.859 36.338 169.859 37.5723C169.859 38.6453 170.214 39.364 170.922 39.739C171.63 40.114 172.589 40.338 173.797 40.4057C175.016 40.463 176.38 40.5828 177.88 40.7598C179.724 40.9838 181.552 41.2286 183.359 41.489C185.177 41.7546 186.839 42.2078 188.339 42.8432C189.839 43.4838 191.026 44.4369 191.901 45.6973C192.786 46.9473 193.234 48.6765 193.234 50.8848C193.234 53.0515 192.578 54.9786 191.276 56.6557C189.969 58.3223 188.156 59.6244 185.839 60.5515C183.531 61.4786 180.828 61.9473 177.734 61.9473C176.37 61.9473 174.885 61.8432 173.276 61.6348C171.661 61.4369 170.094 61.0463 168.568 60.4473C167.052 59.8536 165.719 58.989 164.568 57.864C163.411 56.739 162.594 55.2546 162.109 53.4057Z" fill="white"/>
<path d="M213.095 55.3848C214.371 55.3848 215.626 55.213 216.866 54.864C218.1 54.5046 219.246 53.9057 220.303 53.0723C221.314 52.1453 222.308 51.713 223.282 51.7807C224.251 51.8536 225.058 52.2078 225.699 52.8432C226.334 53.4838 226.657 54.2807 226.657 55.239C226.657 56.1869 226.199 57.0932 225.282 57.9682C223.725 59.4682 221.887 60.5203 219.762 61.114C217.647 61.7078 215.491 61.989 213.282 61.9473C209.85 61.9473 206.814 61.239 204.178 59.8223C201.553 58.4057 199.496 56.4421 198.012 53.9265C196.538 51.4161 195.803 48.5046 195.803 45.1973C195.803 41.5723 196.512 38.3953 197.928 35.6557C199.345 32.9213 201.345 30.7807 203.928 29.239C206.512 27.6973 209.564 26.9265 213.095 26.9265C216.621 26.9265 219.621 27.6453 222.095 29.0723C224.564 30.5046 226.454 32.5098 227.762 35.0932C229.064 37.6765 229.72 40.6921 229.72 44.1348C229.72 45.2338 229.496 46.1713 229.053 46.9473C228.605 47.7286 227.433 48.114 225.532 48.114H203.491C204.116 50.2703 205.282 52.0203 206.991 53.364C208.709 54.713 210.746 55.3848 213.095 55.3848ZM213.157 33.4682C210.6 33.4682 208.459 34.2755 206.741 35.8848C205.017 37.4994 203.913 39.6088 203.428 42.2182H222.699C222.475 39.6088 221.616 37.4994 220.116 35.8848C218.616 34.2755 216.293 33.4682 213.157 33.4682Z" fill="white"/>
<mask id="mask3_30_31" style="mask-type:luminance" maskUnits="userSpaceOnUse" x="224" y="13" width="30" height="30">
<path d="M224.073 13.3333H253.406V42.6666H224.073V13.3333Z" fill="white"/>
</mask>
<g mask="url(#mask3_30_31)">
<mask id="mask4_30_31" style="mask-type:luminance" maskUnits="userSpaceOnUse" x="219" y="-1" width="48" height="49">
<path d="M219.443 17.9375L239.271 -0.390625L266.422 28.9844L246.594 47.3125L219.443 17.9375Z" fill="white"/>
</mask>
<g mask="url(#mask4_30_31)">
<mask id="mask5_30_31" style="mask-type:luminance" maskUnits="userSpaceOnUse" x="219" y="-1" width="48" height="49">
<path d="M219.443 17.9375L239.271 -0.390625L266.422 28.9844L246.594 47.3125L219.443 17.9375Z" fill="white"/>
</mask>
<g mask="url(#mask5_30_31)">
<path d="M253.052 14.6615L229.021 13.5886C224.375 13.3855 223.594 22.4271 229.094 22.5782L244.047 22.9792L242.906 38.0261C242.557 42.6094 251.495 43.0938 251.75 38.4375L253.052 14.6615Z" fill="#F19143"/>
</g>
</g>
</g>
</svg>
